<svg width="44" height="39" viewBox="0 0 44 39" fill="none" xmlns="http://www.w3.org/2000/svg">
<path d="M0.5 4.99999C0.5 2.51471 2.51472 0.5 5 0.5H39C41.4853 0.5 43.5 2.51472 43.5 5V33.351C43.5 35.8363 41.4853 37.851 39 37.851H5C2.51472 37.851 0.5 35.8363 0.5 33.351V4.99999Z" fill="white" stroke="#EF001D"/>
<path d="M9.02075 28.2632C8.74461 28.2632 8.52075 28.0393 8.52075 27.7632V26.5672C8.52075 26.2911 8.74461 26.0672 9.02075 26.0672H34.5208C34.7969 26.0672 35.0208 26.2911 35.0208 26.5672V27.7632C35.0208 28.0393 34.7969 28.2632 34.5208 28.2632H9.02075ZM9.02075 20.2734C8.74461 20.2734 8.52075 20.0495 8.52075 19.7734V18.5774C8.52075 18.3013 8.74461 18.0774 9.02075 18.0774H34.5208C34.7969 18.0774 35.0208 18.3013 35.0208 18.5774V19.7734C35.0208 20.0495 34.7969 20.2734 34.5208 20.2734H9.02075ZM8.52075 10.5876C8.52075 10.3115 8.74461 10.0876 9.02075 10.0876H34.5208C34.7969 10.0876 35.0208 10.3115 35.0208 10.5876V11.7836C35.0208 12.0597 34.7969 12.2836 34.5208 12.2836H9.02075C8.74461 12.2836 8.52075 12.0597 8.52075 11.7836V10.5876Z" fill="#EF001D" stroke="#EF001D"/>
</svg>
